<svg width="12" height="12" viewBox="0 0 12 12" fill="none" xmlns="http://www.w3.org/2000/svg">
<path d="M6.89961 6.9C6.89961 7.25306 6.69631 7.55864 6.40039 7.70606V8.6001C6.40039 8.82101 6.2213 9.0001 6.00039 9.0001C5.77948 9.0001 5.60039 8.82101 5.60039 8.6001V7.70683C5.30362 7.55971 5.09961 7.25368 5.09961 6.9C5.09961 6.40294 5.50255 6 5.99961 6C6.49667 6 6.89961 6.40294 6.89961 6.9Z" fill="#ffffff"/>
<path fill-rule="evenodd" clip-rule="evenodd" d="M8.89209 4C8.86928 3.45604 8.78222 2.81004 8.47427 2.25574C8.27506 1.89716 7.98367 1.57658 7.56615 1.34884C7.15123 1.12252 6.63414 1 5.99961 1C5.36508 1 4.84798 1.12252 4.43307 1.34884C4.01554 1.57658 3.72416 1.89716 3.52494 2.25574C3.217 2.81004 3.12994 3.45604 3.10713 4H2.4C1.90294 4 1.5 4.40294 1.5 4.9V9.6C1.5 10.0971 1.90294 10.5 2.4 10.5H9.59961C10.0967 10.5 10.4996 10.0971 10.4996 9.6V4.9C10.4996 4.40294 10.0967 4 9.59961 4H8.89209ZM3.90823 4C3.93101 3.52138 4.00676 3.03578 4.22427 2.64426C4.35839 2.40284 4.54617 2.19842 4.81615 2.05116C5.08873 1.90248 5.46747 1.8 5.99961 1.8C6.53174 1.8 6.91049 1.90248 7.18307 2.05116C7.45305 2.19842 7.64083 2.40284 7.77495 2.64426C7.99246 3.03578 8.06821 3.52138 8.09099 4H3.90823ZM3.50005 4.8C3.4999 4.8 3.5002 4.8 3.50005 4.8C3.4999 4.8 3.49931 4.8 3.49917 4.8H2.4C2.34477 4.8 2.3 4.84477 2.3 4.9V9.6C2.3 9.65523 2.34477 9.7 2.4 9.7H9.59961C9.65484 9.7 9.69961 9.65523 9.69961 9.6V4.9C9.69961 4.84477 9.65484 4.8 9.59961 4.8H8.50005C8.4999 4.8 8.5002 4.8 8.50005 4.8C8.4999 4.8 8.49931 4.8 8.49917 4.8H3.50005Z" fill="#ffffff"/>
</svg>
