<svg preserveAspectRatio="none" width="16.0014" height="16" overflow="visible" style="display: block;" viewBox="0 0 16.0014 16" fill="none" xmlns="http://www.w3.org/2000/svg">
<g id="Group">
<path id="Vector" d="M15.5793 16H0.420654C0.187589 16 0 15.8124 0 15.5793V7.15869C0 6.92563 0.187589 6.73804 0.420654 6.73804H5.70914C5.87399 6.73804 6.02369 6.83467 6.0919 6.98247C6.43487 7.72904 7.18522 8.21033 8 8.21033C8.81478 8.21033 9.56324 7.72714 9.9081 6.98058C9.97631 6.83089 10.126 6.73614 10.2909 6.73614H15.5793C15.8124 6.73614 16 6.92373 16 7.1568V15.5775C16 15.8105 15.8124 15.9981 15.5793 15.9981V16ZM0.841307 15.1587H15.1587V7.57935H10.5467C10.0237 8.48318 9.05163 9.05353 8 9.05353C6.94837 9.05353 5.97821 8.48318 5.45523 7.57935H0.841307V15.1587Z" fill="var(--fill-0, #1A1A1A)"/>
<path id="Vector_2" d="M15.5793 7.57935C15.3899 7.57935 15.2193 7.45239 15.172 7.26101L13.567 0.843202H2.43486L0.829938 7.26101C0.773093 7.4865 0.543818 7.62103 0.320227 7.56798C0.0947418 7.51113 -0.0435812 7.28375 0.0132639 7.05827L1.69777 0.318333C1.74514 0.130744 1.91378 0 2.10706 0H13.8967C14.09 0 14.2586 0.130744 14.3041 0.318333L15.9886 7.05637C16.0455 7.28186 15.9072 7.51113 15.6817 7.56608C15.6476 7.57556 15.6135 7.57935 15.5793 7.57935Z" fill="var(--fill-0, #1A1A1A)"/>
</g>
</svg>
