<svg width="22" height="22" viewBox="0 0 22 22" fill="none" xmlns="http://www.w3.org/2000/svg">
<path id="Vector" d="M10.7 20.7C16.2229 20.7 20.7 16.2228 20.7 10.7C20.7 5.1771 16.2229 0.699951 10.7 0.699951C5.17717 0.699951 0.700012 5.1771 0.700012 10.7C0.700012 16.2228 5.17717 20.7 10.7 20.7Z" fill="white" stroke="#454545" stroke-width="1.4"/>
<path id="Vector_2" d="M7.26886 7.82861C7.59215 7.82884 7.85382 8.09121 7.85382 8.41455C7.85359 8.7377 7.59201 8.99929 7.26886 8.99951C6.94552 8.99951 6.68315 8.73784 6.68292 8.41455C6.68292 8.09107 6.94538 7.82861 7.26886 7.82861Z" stroke="#454545" stroke-width="1.4"/>
<path id="Vector_3" d="M14.1141 7.82861C14.4374 7.82884 14.6991 8.09121 14.6991 8.41455C14.6989 8.7377 14.4373 8.99929 14.1141 8.99951C13.7908 8.99951 13.5284 8.73784 13.5282 8.41455C13.5282 8.09107 13.7907 7.82861 14.1141 7.82861Z" stroke="#454545" stroke-width="1.4"/>
<path id="Vector_4" d="M6.71191 15.2698C9.37858 12.2222 12.0452 12.2222 14.7119 15.2698" stroke="#454545" stroke-width="1.4" stroke-linecap="round"/>
</svg>